<?xml version="1.0" encoding="UTF-8"?>
<svg width="32px" height="32px" viewBox="0 0 32 32" version="1.1" xmlns="http://www.w3.org/2000/svg" xmlns:xlink="http://www.w3.org/1999/xlink">
    <!-- Generator: Sketch 49.3 (51167) - http://www.bohemiancoding.com/sketch -->
    <title>bobliu-logo</title>
    <desc>Created with Sketch.</desc>
    <defs></defs>
    <g id="bobliu-logo" stroke="none" stroke-width="1" fill="none" fill-rule="evenodd">
        <path d="M14.1110176,14.1525104 L8.32974179,14.1525104 L11.2532277,4.4408921e-16 L31,0 C31.5522847,-1.01453063e-16 32,0.44771525 32,1 L32,31 C32,31.5522847 31.5522847,32 31,32 L1,32 C0.44771525,32 6.76353751e-17,31.5522847 0,31 L0,1 C-6.76353751e-17,0.44771525 0.44771525,1.01453063e-16 1,0 L6.81539908,0 L3.59999847,17.6833408 L13.4717045,17.6833408 L11.8753079,26.5 L18.5139844,26.5 C20.921002,26.5 22.8669688,25.9348774 24.3519434,24.8046154 C25.8369179,23.6743533 26.5793941,22.0637541 26.5793941,19.9727693 C26.5793941,17.9194599 25.6282482,16.5631657 23.7259278,15.9038462 C24.6188537,15.4329037 25.3176548,14.7830128 25.822352,13.9541539 C26.3270492,13.1252951 26.5793941,12.155168 26.5793941,11.0437437 C26.5793941,9.48021449 26.060146,8.36880681 25.0216344,7.70948728 C23.9831228,7.05016775 22.4933178,6.72051293 20.5521746,6.72051293 L15.4566992,6.72051293 L14.1110176,14.1525104 Z" id="bound" fill="#FFFFFF"></path>
        <path d="M18.4273357,23.0970011 C19.603315,23.0970011 20.5669502,22.8315125 21.3182703,22.3005275 C22.0695904,21.7695424 22.4452448,21.0047769 22.4452448,20.0062079 C22.4452448,19.2453935 22.2206688,18.6708288 21.77151,18.2824964 C21.3223513,17.894164 20.6567897,17.7000008 19.7748052,17.7000008 L16.8593711,17.7000008 L15.8793933,23.0970011 L18.4273357,23.0970011 Z" id="shape2" fill="#FFFFFF"></path>
        <path d="M20.0038164,14.1346981 C20.8664935,14.1346981 21.5614174,13.898276 22.088609,13.4254246 C22.6158005,12.9525732 22.8793923,12.3053191 22.8793923,11.483643 C22.8793923,10.8325033 22.6996706,10.3557833 22.3402219,10.0534684 C21.9807731,9.75115362 21.4495956,9.59999847 20.7466735,9.59999847 L18.494139,9.59999847 L17.6793925,14.1346981 L20.0038164,14.1346981 Z" id="shape1" fill="#FFFFFF"></path>
    </g>
</svg>