<?xml version="1.0" encoding="UTF-8"?>
<svg width="36px" height="18px" viewBox="0 0 36 18" version="1.1" xmlns="http://www.w3.org/2000/svg" xmlns:xlink="http://www.w3.org/1999/xlink">
    <!-- Generator: Sketch 49.3 (51167) - http://www.bohemiancoding.com/sketch -->
    <title>Combined Shape</title>
    <desc>Created with Sketch.</desc>
    <defs></defs>
    <g id="Page-1" stroke="none" stroke-width="1" fill="none" fill-rule="evenodd">
        <g id="r" transform="translate(-47.000000, -40.000000)" fill="#FFFFFF">
            <path d="M47,40 L83,40 L83,58 L47,58 L47,40 Z M63.344,55 L65.792,55 L67.248,43.024 L64.8,43.024 L63.344,55 Z M71.04,46.704 L68.592,46.704 L67.6,55 L70.048,55 L71.04,46.704 Z M71.504,44.432 C71.504,44.2293323 71.4626671,44.0400009 71.38,43.864 C71.2973329,43.6879991 71.1880007,43.533334 71.052,43.4 C70.9159993,43.266666 70.7600009,43.162667 70.584,43.088 C70.4079991,43.013333 70.224001,42.976 70.032,42.976 C69.8453324,42.976 69.6666675,43.0146663 69.496,43.092 C69.3253325,43.1693337 69.1720007,43.274666 69.036,43.408 C68.8999993,43.541334 68.7920004,43.6959991 68.712,43.872 C68.6319996,44.0480009 68.592,44.2346657 68.592,44.432 C68.592,44.6293343 68.6319996,44.8146658 68.712,44.988 C68.7920004,45.1613342 68.8973327,45.3133327 69.028,45.444 C69.1586673,45.5746673 69.3093325,45.6786663 69.48,45.756 C69.6506675,45.8333337 69.8293324,45.872 70.016,45.872 C70.2026676,45.872 70.3853324,45.8333337 70.564,45.756 C70.7426676,45.6786663 70.9013326,45.5746673 71.04,45.444 C71.1786674,45.3133327 71.2906662,45.1613342 71.376,44.988 C71.4613338,44.8146658 71.504,44.6293343 71.504,44.432 Z M75.152,46.704 L72.672,46.704 L72.048,51.968 C72.0373333,52.0746672 72.028,52.1786662 72.02,52.28 C72.012,52.3813338 72.008,52.4799995 72.008,52.576 C72.008,52.9866687 72.0599995,53.3506651 72.164,53.668 C72.2680005,53.9853349 72.4146657,54.2519989 72.604,54.468 C72.7933343,54.6840011 73.017332,54.8479994 73.276,54.96 C73.534668,55.0720006 73.8186651,55.128 74.128,55.128 C74.6240025,55.128 75.101331,55.0080012 75.56,54.768 C76.018669,54.5279988 76.447998,54.1573358 76.848,53.656 L76.848,54.184 C76.848,54.7280027 77.1413304,55 77.728,55 L78.992,55 L80,46.704 L77.52,46.704 L76.984,51.096 C76.8879995,51.4106682 76.7666674,51.6959987 76.62,51.952 C76.4733326,52.2080013 76.3146675,52.4253324 76.144,52.604 C75.9733325,52.7826676 75.7960009,52.9213328 75.612,53.02 C75.4279991,53.1186672 75.2533342,53.168 75.088,53.168 C74.8906657,53.168 74.7426672,53.1120006 74.644,53 C74.5453328,52.8879994 74.496,52.6906681 74.496,52.408 C74.496,52.3439997 74.4986666,52.2760004 74.504,52.204 C74.5093334,52.1319996 74.5173333,52.0533338 74.528,51.968 L75.152,46.704 Z" id="Combined-Shape"></path>
        </g>
    </g>
</svg>